<svg xmlns="http://www.w3.org/2000/svg" viewBox="0 0 145 50" xmlns:v="https://vecta.io/nano"><defs><linearGradient id="A" x1="25.51" y1="13.59" x2="8.05" y2="31.05" gradientUnits="userSpaceOnUse"><stop offset="0" stop-color="#4998d3"/><stop offset=".01" stop-color="#4a99d3"/><stop offset=".26" stop-color="#42baeb"/><stop offset=".51" stop-color="#41c7f2"/><stop offset=".76" stop-color="#56c9e9"/><stop offset="1" stop-color="#5bcae8"/></linearGradient><linearGradient id="B" x1="38.03" y1="25.34" x2="12.86" y2="25.34" gradientUnits="userSpaceOnUse"><stop offset="0" stop-color="#fee000"/><stop offset=".41" stop-color="#febd11"/><stop offset=".78" stop-color="#faa51a"/><stop offset="1" stop-color="#f99c1c"/></linearGradient><linearGradient id="C" x1="28.66" y1="27.73" x2="4.98" y2="51.41" gradientUnits="userSpaceOnUse"><stop offset="0" stop-color="#ef4049"/><stop offset="1" stop-color="#c31e63"/></linearGradient><linearGradient id="D" x1="10.42" y1="4.71" x2="20.99" y2="15.28" gradientUnits="userSpaceOnUse"><stop offset="0" stop-color="#32a072"/><stop offset=".07" stop-color="#2da771"/><stop offset=".48" stop-color="#4bba71"/><stop offset=".8" stop-color="#5ebd6b"/><stop offset="1" stop-color="#66be69"/></linearGradient></defs><path d="M11.72 47.62h-1.07a15 15 0 0 1-2.21-.2 6.85 6.85 0 0 1-2-.65 6.29 6.29 0 0 1-1.65-1.2 6.13 6.13 0 0 1-1.2-1.65A6.85 6.85 0 0 1 3 42a14.46 14.46 0 0 1-.19-2.22v-29.5A14.23 14.23 0 0 1 3 8.06a7.12 7.12 0 0 1 .64-2 6.39 6.39 0 0 1 1.19-1.62 6.56 6.56 0 0 1 1.65-1.21 6.73 6.73 0 0 1 2-.64 16 16 0 0 1 2.22-.2h123.65a15.71 15.71 0 0 1 2.2.2 6.9 6.9 0 0 1 2 .64 6.68 6.68 0 0 1 2.86 2.87 6.86 6.86 0 0 1 .63 2 15.55 15.55 0 0 1 .21 2.23v29.42a16.81 16.81 0 0 1-.2 2.19 7.23 7.23 0 0 1-.64 2 6.6 6.6 0 0 1-1.2 1.64 6.31 6.31 0 0 1-1.66 1.21 6.91 6.91 0 0 1-2 .65 14.74 14.74 0 0 1-2.21.2H11.72z" fill="#010101"/><g fill="#fff"><path d="M52 15a2.75 2.75 0 0 1-.75 2 3 3 0 0 1-2.27.92 3.19 3.19 0 0 1-3.21-3.23A3.19 3.19 0 0 1 49 11.47a3.21 3.21 0 0 1 1.27.26 2.51 2.51 0 0 1 1 .69l-.54.54a2.13 2.13 0 0 0-1.7-.73 2.32 2.32 0 0 0-1.68.69 2.35 2.35 0 0 0-.72 1.78 2.35 2.35 0 0 0 .72 1.78 2.32 2.32 0 0 0 1.68.69 2.35 2.35 0 0 0 1.73-.69 2 2 0 0 0 .52-1.25H49v-.75h3a2.63 2.63 0 0 1 0 .52zm4.77-2.63H54v2h2.54v.74H54v2h2.82v.76h-3.66V11.6h3.6zm3.35 5.43h-.8v-5.42H57.6v-.76h4.24v.76h-1.72zm4.8 0v-6.2h.8v6.18zm4.3 0h-.8v-5.42H66.7v-.76H71v.76h-1.77zM79 17a3.2 3.2 0 0 1-4.53 0 3.15 3.15 0 0 1-.91-2.29 3.15 3.15 0 0 1 .91-2.29 3 3 0 0 1 2.26-.94 3 3 0 0 1 2.26.94A3.32 3.32 0 0 1 79 17zm-4-.52a2.37 2.37 0 0 0 3.36 0 2.4 2.4 0 0 0 .69-1.77 2.4 2.4 0 0 0-.69-1.77 2.37 2.37 0 0 0-3.36 0 2.43 2.43 0 0 0-.68 1.77 2.43 2.43 0 0 0 .73 1.76zm6 1.32v-6.2h1l3 4.8v-4.8h.8v6.18H85l-3.14-5v5.04z" stroke="#fff" stroke-miterlimit="10" stroke-width=".2"/><path d="M73.36 26.8a4.39 4.39 0 1 0 4.4 4.38 4.33 4.33 0 0 0-4.4-4.38zm0 7a2.66 2.66 0 1 1 2.47-2.66 2.54 2.54 0 0 1-2.47 2.7zm-9.6-7a4.39 4.39 0 1 0 4.4 4.38 4.32 4.32 0 0 0-4.4-4.38zm0 7a2.66 2.66 0 1 1 2.47-2.66 2.54 2.54 0 0 1-2.47 2.7zm-11.4-5.65V30h4.44a3.88 3.88 0 0 1-1 2.34 4.58 4.58 0 0 1-3.43 1.36 4.95 4.95 0 0 1 0-9.89 4.78 4.78 0 0 1 3.35 1.32l1.28-1.3A6.49 6.49 0 0 0 52.36 22a6.81 6.81 0 1 0 0 13.61 6.22 6.22 0 0 0 4.74-1.91 6.15 6.15 0 0 0 1.61-4.35 5.76 5.76 0 0 0-.1-1.16zM99 29.6a4.06 4.06 0 0 0-3.75-2.79 4.17 4.17 0 0 0-4.13 4.38 4.29 4.29 0 0 0 4.35 4.39 4.34 4.34 0 0 0 3.65-2l-1.5-1a2.51 2.51 0 0 1-2.16 1.21 2.22 2.22 0 0 1-2.12-1.33l5.85-2.42zm-6 1.46a2.4 2.4 0 0 1 2.29-2.55 1.71 1.71 0 0 1 1.63.93zm-4.7 4.25h1.92V22.42H88.3zm-3.15-7.52h-.07a3 3 0 0 0-2.31-1 4.39 4.39 0 0 0 0 8.77 3 3 0 0 0 2.31-1h.07v.63c0 1.68-.9 2.57-2.34 2.57a2.42 2.42 0 0 1-2.21-1.56l-1.68.7a4.18 4.18 0 0 0 3.89 2.61c2.25 0 4.16-1.33 4.16-4.56v-7.87h-1.82zm-2.2 6.06a2.66 2.66 0 0 1 0-5.31 2.47 2.47 0 0 1 2.34 2.67 2.45 2.45 0 0 1-2.34 2.64zM108 22.42h-4.6V35.3h1.92v-4.88H108a4 4 0 1 0 0-8zm0 6.2h-2.73v-4.4H108a2.21 2.21 0 1 1 0 4.41zm12-1.85a3.61 3.61 0 0 0-3.43 2l1.7.7a1.81 1.81 0 0 1 1.75-.94 1.84 1.84 0 0 1 2 1.66v.13a4.22 4.22 0 0 0-2-.5c-1.84 0-3.7 1-3.7 2.9a3 3 0 0 0 3.19 2.83 2.72 2.72 0 0 0 2.49-1.29h0v1h1.86v-4.94c.02-2.28-1.7-3.56-3.86-3.56zm-.23 7.06c-.63 0-1.5-.32-1.5-1.1 0-1 1.1-1.37 2-1.37a3.39 3.39 0 0 1 1.75.43 2.33 2.33 0 0 1-2.27 2.04zm10.9-6.78l-2.2 5.58h-.06l-2.3-5.58H124l3.43 7.8-2 4.34h2l5.28-12.14zm-17.34 8.24h1.92V22.42h-1.92z"/></g><path d="M13.7 12.37a2.05 2.05 0 0 0-.49 1.46v23a2.06 2.06 0 0 0 .49 1.47l.07.07 12.9-12.88v-.3l-12.9-12.9z" fill="url(#A)"/><path d="M31 29.8l-4.3-4.3v-.3l4.3-4.3.1.05 5.1 2.9c1.45.83 1.45 2.18 0 3l-5.1 2.9z" fill="url(#B)"/><path d="M31.05 29.73l-4.4-4.4-13 13a1.69 1.69 0 0 0 2.16.06L31 29.76" fill="url(#C)"/><path d="M31.05,20.94,15.85,12.3a1.69,1.69,0,0,0-2.16.07l13,13Z" fill="url(#D)"/><g fill="#010101"><path d="M31 29.64l-15.1 8.58a1.74 1.74 0 0 1-2.09 0h0l-.07.08.07.07a1.74 1.74 0 0 0 2.09 0l15.2-8.64z" opacity=".2"/><path d="M13.7 38.15a2 2 0 0 1-.49-1.46v.15a2.06 2.06 0 0 0 .49 1.47l.07-.08zM36.14 26.7L31 29.64l.1.1 5.1-2.9a1.82 1.82 0 0 0 1.09-1.5h0a2 2 0 0 1-1.14 1.35z" opacity=".12"/></g><path d="M15.85 12.46L36.14 24a1.91 1.91 0 0 1 1.09 1.35h0a1.83 1.83 0 0 0-1.09-1.51L15.85 12.3c-1.46-.82-2.65-.14-2.65 1.53V14c0-1.68 1.2-2.37 2.65-1.54z" fill="#fff" opacity=".25"/></svg>