<svg xmlns="http://www.w3.org/2000/svg" width="23" height="23" viewBox="0 0 23 23"><g><g opacity=".63"><g opacity=".63"><g opacity=".63"><path fill="#fff" d="M4.539 16.395l.42-.05v-6.43c0-3.75 3.051-6.801 6.801-6.801a6.81 6.81 0 0 1 6.802 6.801v6.43l.42.05a3.22 3.22 0 0 1 2.78 2.688H1.76a3.219 3.219 0 0 1 2.779-2.688zm18.22 3.165a4.18 4.18 0 0 0-3.239-4.042V9.915c0-4.278-3.48-7.76-7.76-7.76-4.278 0-7.759 3.482-7.759 7.76v5.603A4.179 4.179 0 0 0 .763 19.56l-.002.482h22z"/></g></g><g opacity=".63"><g opacity=".63"><path fill="#fff" d="M10.423 2.869h-.958v-.573A2.298 2.298 0 0 1 11.761 0a2.298 2.298 0 0 1 2.295 2.296v.563h-.958v-.563c0-.738-.6-1.338-1.337-1.338-.738 0-1.338.6-1.338 1.338z"/></g></g><g opacity=".63"><g opacity=".63"><path fill="#fff" d="M11.754 22.916a4.005 4.005 0 0 1-3.911-3.189l.938-.191a3.043 3.043 0 0 0 2.973 2.422 3.031 3.031 0 0 0 2.984-2.481l.942.173a3.988 3.988 0 0 1-3.926 3.266z"/></g></g><g opacity=".63"><g opacity=".63"><path fill="#fff" d="M4.48 16.4v-.959h1.764v.958z"/></g></g><g opacity=".63"><g opacity=".63"><path fill="#fff" d="M9.006 16.4v-.959h10.035v.958z"/></g></g></g></g></svg>