<svg xmlns="http://www.w3.org/2000/svg" width="16" height="14" viewBox="0 0 16 14"><g><g><g><g><g><path fill="#ff4229" d="M15.248 12.589a.174.174 0 0 1-.156.09H1.907a.174.174 0 0 1-.156-.09.174.174 0 0 1 0-.18L8.343.99A.174.174 0 0 1 8.5.9c.04 0 .111.012.156.09l6.593 11.419a.174.174 0 0 1 0 .18zm.78-.63L9.435.539A1.07 1.07 0 0 0 8.5 0c-.39 0-.74.202-.936.54L.971 11.96a1.07 1.07 0 0 0 0 1.08c.195.339.545.54.936.54h13.185c.39 0 .74-.201.936-.54a1.07 1.07 0 0 0 0-1.08z"/></g><g><path fill="#ff4229" d="M8.05 8.897V4.094h.9v4.803z"/></g><g><path fill="#ff4229" d="M7.899 10.398a.6.6 0 1 1 1.2 0 .6.6 0 0 1-1.2 0z"/></g></g></g></g></g></svg>