<svg xmlns="http://www.w3.org/2000/svg" width="7" height="11" viewBox="0 0 7 11"><g><g opacity=".53"><path fill="#8c9298" d="M6.337.09L4.901.089c-1.613 0-2.656 1.064-2.656 2.708v1.249H.801c-.125 0-.226.1-.226.223v1.81c0 .123.101.223.226.223h1.444v4.564c0 .125.1.225.226.225h1.884a.226.226 0 0 0 .225-.225V6.301H6.27c.125 0 .226-.1.226-.224v-1.81a.218.218 0 0 0-.066-.156.224.224 0 0 0-.16-.066H4.58V2.986c0-.508.123-.767.79-.767h.967c.125 0 .226-.1.226-.225V.316c0-.125-.101-.225-.226-.225z"/></g></g></svg>