<svg xmlns="http://www.w3.org/2000/svg" width="8" height="12" viewBox="0 0 8 12"><g><g opacity=".53"><path fill="#8c9298" d="M5.485 4.484c-.227.243-.61.424-.965.424-1.219 0-1.772-1.682-1.772-2.697 0-.395.071-.804.312-1.123.227-.302.624-.5.993-.5 1.177 0 1.787 1.7 1.787 2.789 0 .273-.029.758-.355 1.107zM6.62 9.365c0 .94-.724 1.637-2.085 1.637-1.517 0-2.496-.773-2.496-1.85 0-1.076.908-1.437 1.22-1.56.595-.213 1.36-.242 1.488-.242.142 0 .213 0 .327.014 1.078.818 1.546 1.228 1.546 2.001zM7.867.088H4.946c-.766 0-1.73.122-2.538.834a2.803 2.803 0 0 0-.907 2.031c0 1.182.85 2.381 2.353 2.381.142 0 .297-.016.455-.03-.071.18-.143.332-.143.59 0 .47.227.758.425 1.03-.637.047-1.828.122-2.708.697C1.046 8.153.79 8.926.79 9.471c0 1.123.992 2.169 3.049 2.169 2.439 0 3.73-1.44 3.73-2.867 0-1.044-.568-1.56-1.192-2.12l-.51-.425C5.713 6.09 5.5 5.91 5.5 5.576s.213-.546.396-.744c.596-.5 1.192-1.03 1.192-2.151 0-1.153-.682-1.76-1.007-2.048h.88z"/></g></g></svg>