<svg xmlns="http://www.w3.org/2000/svg" width="15" height="21" viewBox="0 0 15 21"><g><g opacity=".66"><g opacity=".66"><g opacity=".66"><path fill="#fff" d="M11 15.21l-.001.001-.012-.001a.167.167 0 0 0-.167.167v.004l.002.02v.008l.002.008.308 2.105a.407.407 0 0 1-.556.435s-1.945-.87-2.325-.999h-.004a.235.235 0 0 0-.26.07l-.48.48h-.002a.235.235 0 0 1-.163.066H7.329a.234.234 0 0 1-.163-.066h-.002l-.48-.48a.235.235 0 0 0-.26-.07H6.42c-.38.129-2.325 1-2.325 1a.408.408 0 0 1-.404-.057.407.407 0 0 1-.152-.379l.311-2.108a.167.167 0 0 0-.163-.203h-.013-.003c-1.239.082-2.84 1.198-2.84 2.603v2.338H13.84v-2.338c0-1.405-1.601-2.521-2.84-2.603z"/></g><g opacity=".66"><path fill="#fff" d="M5.667 10.708a.46.46 0 1 1 0-.92.46.46 0 0 1 0 .92zm-.184-1.467a.896.896 0 1 0 0 1.793.896.896 0 0 0 0-1.793z"/></g><g opacity=".66"><path fill="#fff" d="M6.35 6.51h.981v.002H7.34V6.51h.98a.65.65 0 0 0 .52-.267.669.669 0 0 0 .106-.36V1.298c0-.026-.013-.053-.013-.08A.61.61 0 0 0 8.32.672H6.35a.61.61 0 0 0-.613.546c0 .027-.014.054-.014.08v4.585c0 .134.04.254.107.36a.65.65 0 0 0 .52.267z"/></g><g opacity=".66"><path fill="#fff" d="M9.004 10.708a.46.46 0 1 1 .002-.918.46.46 0 0 1-.002.918zm.184-1.467a.896.896 0 1 0 .002 1.792.896.896 0 0 0-.002-1.792z"/></g><g opacity=".66"><path fill="#fff" d="M12.475 11.03c-.015 0-.036-.002-.058-.004l-.284-.021-.121.236c-.771 1.495-2.557 3.103-4.677 3.148-2.12-.045-3.905-1.653-4.676-3.148l-.121-.236-.284.021-.058.004c-.613 0-.924-.408-.924-1.213 0-.26.05-1.093.664-1.327.117.494.325 1.17.591 1.212.42.066.123-1.4.575-1.802 1.26-.088 2.879-.18 4.23-.191v.002h.008v-.002c1.35.011 2.968.103 4.229.19.452.404.155 1.87.574 1.803.267-.042.475-.718.592-1.212.613.234.663 1.067.663 1.327 0 .805-.31 1.213-.923 1.213zm1.29-2.971a1.01 1.01 0 0 0-.104-2.015h-.795l-.054-.17C12.35 4.34 11.129 2.763 9.58 1.973V5.98c0 .06 0 .104-.015.164-.03.163-.075.312-.164.446a1.145 1.145 0 0 1-.983.552H6.253c-.417 0-.79-.224-.983-.552a1.152 1.152 0 0 1-.164-.446c-.015-.06-.015-.105-.015-.164V1.972c-1.549.79-2.77 2.368-3.232 3.903l-.054.17H1.01a1.01 1.01 0 0 0-.104 2.014s.128.013.239-.007C.718 8.437.47 9.06.47 9.817c0 .595.141 1.075.42 1.426.279.354.683.554 1.175.584a7.07 7.07 0 0 0 2.088 2.279c.993.69 2.09 1.063 3.177 1.083v.003H7.34v-.003c1.088-.02 2.184-.393 3.177-1.083a7.068 7.068 0 0 0 2.088-2.279c.491-.03.896-.23 1.176-.584.278-.351.419-.831.419-1.426 0-.757-.247-1.38-.674-1.765.11.02.239.007.239.007z"/></g></g></g></g></svg>