<svg xmlns="http://www.w3.org/2000/svg" width="15" height="16" viewBox="0 0 15 16"><g><g opacity=".66"><g opacity=".66"><path fill="#fff" d="M.173 4.042l7.195 3.464c.083.04.18.04.264 0l7.196-3.464a.304.304 0 0 0 0-.548L7.632.03a.305.305 0 0 0-.264 0L.173 3.494a.304.304 0 0 0 0 .548z"/></g><g opacity=".66"><path fill="#fff" d="M.173 8.243l7.195 3.464c.083.04.18.04.264 0l7.196-3.464a.305.305 0 0 0 0-.548l-1.519-.731-4.821 2.32a2.292 2.292 0 0 1-.988.226c-.34 0-.681-.078-.988-.226L1.69 6.964l-1.518.73a.305.305 0 0 0 0 .55z"/></g><g opacity=".66"><path fill="#fff" d="M14.828 11.896l-1.519-.73-4.821 2.32a2.292 2.292 0 0 1-.988.225c-.34 0-.681-.078-.988-.225l-4.821-2.32-1.518.73a.305.305 0 0 0 0 .549l7.195 3.463c.083.04.18.04.264 0l7.195-3.463a.305.305 0 0 0 0-.55z"/></g></g></g></svg>