<svg xmlns="http://www.w3.org/2000/svg" width="15" height="19" viewBox="0 0 15 19"><g><g opacity=".66"><g opacity=".66"><path fill="#fff" d="M7.348 10.758c-1.888 0-3.409-2.563-3.409-4.686 0-.29.01-.56.027-.81 2.762.12 4.395-.987 5.284-1.948.843.84 1.281 1.902 1.505 2.69v.068c0 2.123-1.52 4.686-3.407 4.686zm3.716-2.323c.492-.105.946-.512 1.02-1.413.06-.739-.128-1.119-.408-1.313.776-3.163-1.364-3.782-1.364-3.782s-1.6-2.713-4.72-.81c-.397.243-1.015.707-1.382 1.186-.59.628-.992 1.649-1.055 3.303-.381.145-.68.513-.607 1.415.078.943.57 1.344 1.088 1.427.699 1.701 2.079 3.104 3.712 3.104 1.636 0 3.019-1.409 3.716-3.117z"/></g><g opacity=".66"><path fill="#fff" d="M6.266 13.968l.219-.905a.528.528 0 0 1 .152-.262 1.273 1.273 0 0 1-.066-.05L4.62 11.134l-1.189.278C1.418 11.886 0 13.585 0 15.534v2.56c0 .504.448.906.984.906h5.03l.768-4.373a.533.533 0 0 1-.516-.659z"/></g><g opacity=".66"><path fill="#fff" d="M11.193 11.412l-1.172-.278-1.95 1.617a1.255 1.255 0 0 1-.065.05.529.529 0 0 1 .153.262l.218.905a.534.534 0 0 1-.516.66L8.63 19h5.03c.536 0 .944-.401.944-.906v-2.56c0-1.949-1.397-3.648-3.41-4.122z"/></g></g></g></svg>