<svg xmlns="http://www.w3.org/2000/svg" width="12" height="12" viewBox="0 0 12 12"><g><g opacity=".53"><path fill="#8c9298" d="M1.754 2.957c.205 0 .37-.173.37-.387V1.192a.379.379 0 0 0-.37-.388H.278a.379.379 0 0 0-.37.388V2.57c0 .214.165.387.37.387zm0 8.755c.205 0 .37-.173.37-.387V4.54a.378.378 0 0 0-.37-.388H.278a.378.378 0 0 0-.37.388v6.785c0 .214.165.387.37.387zm9.151 0c.205 0 .37-.173.37-.387V7.483c0-.68-.04-1.201-.122-1.567a2.634 2.634 0 0 0-.435-.979c-.206-.287-.513-.523-.917-.707a3.19 3.19 0 0 0-1.34-.276c-.994 0-1.835.397-2.524 1.192-.138.16-.238.124-.238-.09V4.54a.378.378 0 0 0-.368-.388h-1.32a.378.378 0 0 0-.369.388v6.785c0 .214.165.387.368.387h1.478a.378.378 0 0 0 .369-.387v-2.36c0-.985.057-1.658.17-2.022.113-.364.322-.657.627-.878a1.71 1.71 0 0 1 1.033-.33c.3 0 .555.076.77.23.212.155.366.372.46.651.095.28.142.894.142 1.845v2.864c0 .214.165.387.37.387z"/></g></g></svg>