<svg xmlns="http://www.w3.org/2000/svg" width="11" height="11" viewBox="0 0 11 11"><g><g opacity=".53"><path fill="#8c9298" d="M9.8 2.303A2.27 2.27 0 0 0 10.814.998a5.44 5.44 0 0 1-1.486.552 2.192 2.192 0 0 0-1.68-.732c-.66 0-1.217.236-1.671.692-.452.46-.68 1.02-.68 1.672 0 .198.025.376.074.525C3.427 3.64 1.818 2.82.55 1.245A2.4 2.4 0 0 0 .227 2.43c0 .835.347 1.497 1.04 1.982a2.559 2.559 0 0 1-1.04-.302c0 .597.173 1.095.518 1.533.347.433.793.71 1.337.829-.197.05-.405.075-.619.075-.197 0-.337-.017-.42-.053.146.485.42.88.816 1.182.395.302.85.462 1.36.475A4.506 4.506 0 0 1 .327 9.154a3.73 3.73 0 0 1-.57-.024c1.072.707 2.266 1.058 3.587 1.058 1.352 0 2.546-.348 3.586-1.042 1.04-.694 1.807-1.547 2.3-2.551a7.007 7.007 0 0 0 .74-3.139v-.3a4.97 4.97 0 0 0 1.163-1.234c-.43.188-.874.316-1.333.38z"/></g></g></svg>