<svg xmlns="http://www.w3.org/2000/svg" width="12" height="15" viewBox="0 0 12 15"><g><g opacity=".53"><path fill="#8c9298" d="M3.683 5.714V3.596L4.63.419h-.775l-.518 2.029L2.82.419h-.862c.171.53.344.972.518 1.5.258.706.43 1.324.43 1.677v2.118zm1.982-3.353c.26 0 .347.175.347.53v1.675c0 .354-.087.53-.347.53-.258 0-.344-.176-.344-.53V2.891c0-.355.086-.53.344-.53zm-.776 3c.174.264.431.353.776.353.347 0 .604-.177.778-.441.173-.088.258-.441.258-.882V3.068c0-.443-.085-.707-.258-.97-.174-.266-.431-.355-.778-.355-.345 0-.602.177-.776.441-.17.177-.258.44-.258.884V4.48c0 .44.087.705.258.882zm4.4.353v-3.97H8.6v3c-.172.263-.258.352-.432.352-.086 0-.173-.09-.173-.176V1.743h-.689v3.089c0 .264 0 .441.087.618 0 .175.171.264.43.264s.519-.177.777-.441v.441zm.69 4.853v-.355c0-.352-.087-.527-.345-.527-.26 0-.344.175-.344.527v.355zm-2.847 1.85c.173 0 .26-.174.26-.527v-1.678c0-.352-.087-.527-.26-.527-.085 0-.258.087-.345.175v2.383c.087.088.26.174.345.174zM1.009 7.744h2.416v.793H2.56v4.499h-.775V8.537h-.776zm3.794 4.853c-.258.353-.516.439-.776.439-.258 0-.344-.086-.431-.264 0-.086-.087-.264-.087-.618V9.067H4.2v3.087c0 .089.087.177.172.177.173 0 .26-.088.43-.352V9.067h.692v3.969h-.691zm1.984 0v.353h-.69V7.744h.69V9.42c.26-.264.431-.441.691-.441.258 0 .432.177.516.441.087.177.087.441.087.793v1.59c0 .352 0 .615-.087.795-.084.264-.258.439-.516.439-.26 0-.517-.175-.69-.44zm2.76-3.442c.345 0 .605.176.776.441.174.176.174.53.174.883v.707H9.29v.704c0 .353.084.527.344.527.171 0 .258-.086.345-.263v-.441h.689v.53c0 .174-.085.265-.171.443-.174.264-.432.44-.863.44-.344 0-.604-.176-.862-.44-.173-.178-.26-.532-.26-.884v-1.323c0-.441.087-.707.173-.883.174-.265.431-.44.863-.44zM5.839 14.54c1.467 0 2.847 0 4.314-.178.602-.089 1.12-.53 1.207-1.148.173-.882.173-1.85.173-2.734 0-.883 0-1.854-.173-2.735-.171-.619-.691-1.148-1.207-1.148-1.38-.177-2.847-.177-4.314-.177-1.466 0-2.847 0-4.311.177-.518 0-1.036.53-1.21 1.148-.17.881-.17 1.852-.17 2.735 0 .884 0 1.852.17 2.734.174.618.605 1.06 1.21 1.148 1.464.178 2.845.178 4.311.178z"/></g></g></svg>