<svg xmlns="http://www.w3.org/2000/svg" xmlns:xlink="http://www.w3.org/1999/xlink" viewBox="0 0 145 50" xmlns:v="https://vecta.io/nano"><path d="M12.46 47.62H11.4a14.74 14.74 0 0 1-2.21-.2 6.65 6.65 0 0 1-2-.65 6.18 6.18 0 0 1-1.66-1.2 6.13 6.13 0 0 1-1.2-1.65 6.85 6.85 0 0 1-.65-2 14.46 14.46 0 0 1-.19-2.22V10.27a14.23 14.23 0 0 1 .19-2.21 6.81 6.81 0 0 1 .65-2 6.13 6.13 0 0 1 1.2-1.65 6.59 6.59 0 0 1 3.65-1.82 16 16 0 0 1 2.22-.2h123.7a15.71 15.71 0 0 1 2.2.2 6.8 6.8 0 0 1 2 .64 6.55 6.55 0 0 1 3.49 4.82 15.55 15.55 0 0 1 .21 2.23v29.47a16.81 16.81 0 0 1-.2 2.19 6.9 6.9 0 0 1-.64 2 6.6 6.6 0 0 1-1.2 1.64 6.31 6.31 0 0 1-1.66 1.21 6.91 6.91 0 0 1-2 .65 14.74 14.74 0 0 1-2.21.2H12.46z" fill="#010101"/><g fill="#fff"><path d="M31.76 25.35a5.88 5.88 0 0 1 2.79-4.91 6 6 0 0 0-4.72-2.55c-2-.2-3.9 1.2-4.92 1.2s-2.6-1.17-4.27-1.08a6.28 6.28 0 0 0-5.29 3.22c-2.3 4-.58 9.78 1.6 13 1.1 1.57 2.37 3.32 4.05 3.26s2.25-1 4.23-1 2.54 1 4.25 1 2.87-1.57 3.93-3.16a12.67 12.67 0 0 0 1.79-3.65 5.68 5.68 0 0 1-3.45-5.32zm-3.23-9.55a5.78 5.78 0 0 0 1.32-4.13 5.79 5.79 0 0 0-3.79 2 5.5 5.5 0 0 0-1.36 4 4.88 4.88 0 0 0 3.83-1.87zM52.5 33.44h-5.6l-1.34 4h-2.38l5.3-14.68H51l5.3 14.68h-2.46zm-5-1.83h4.44l-2.2-6.44h-.06zm20.2.45c0 3.33-1.8 5.46-4.47 5.46a3.62 3.62 0 0 1-3.37-1.87h0V41h-2.2V26.7h2.13v1.8a3.8 3.8 0 0 1 3.41-1.9c2.7 0 4.5 2.15 4.5 5.47zm-2.26 0c0-2.17-1.12-3.6-2.83-3.6s-2.8 1.45-2.8 3.6 1.13 3.6 2.8 3.6 2.83-1.4 2.83-3.6zm14.06 0c0 3.33-1.78 5.46-4.47 5.46a3.63 3.63 0 0 1-3.37-1.87h-.05V41h-2.2V26.7h2.13v1.8a3.81 3.81 0 0 1 3.47-1.9c2.7 0 4.5 2.15 4.5 5.47zm-2.26 0c0-2.17-1.12-3.6-2.83-3.6s-2.8 1.45-2.8 3.6 1.13 3.6 2.8 3.6 2.83-1.4 2.83-3.6zm10.04 1.26c.16 1.46 1.58 2.4 3.5 2.4s3.2-.95 3.2-2.27c0-1.14-.8-1.82-2.7-2.3l-1.9-.46c-2.7-.65-4-1.9-4-3.95 0-2.54 2.2-4.28 5.34-4.28s5.23 1.74 5.3 4.28h-2.2c-.13-1.47-1.34-2.35-3.1-2.35s-3 .9-3 2.2c0 1 .77 1.65 2.66 2.12l1.62.4c3 .7 4.27 1.92 4.27 4.07 0 2.75-2.2 4.47-5.67 4.47-3.26 0-5.46-1.68-5.6-4.34zM101 24.17v2.53h2v1.75h-2v5.9c0 .92.4 1.34 1.3 1.34a6.79 6.79 0 0 0 .73 0v1.73a6.18 6.18 0 0 1-1.22.1c-2.17 0-3-.8-3-2.9v-6.18h-1.53V26.7h1.55v-2.53zm3.26 7.9c0-3.37 2-5.5 5.08-5.5s5.08 2.12 5.08 5.5-2 5.5-5.08 5.5-5.08-2.1-5.08-5.5zm7.92 0c0-2.3-1.06-3.68-2.84-3.68s-2.84 1.38-2.84 3.68 1 3.67 2.84 3.67 2.84-1.35 2.84-3.67zm4.05-5.36h2.1v1.83h.05a2.57 2.57 0 0 1 2.63-1.94 3.35 3.35 0 0 1 .75.08v2.06a3.1 3.1 0 0 0-1-.13 2.21 2.21 0 0 0-2.29 2.46v6.35h-2.2zm15.6 7.57c-.3 1.94-2.2 3.28-4.6 3.28-3.12 0-5-2.1-5-5.44s1.94-5.54 4.95-5.54 4.83 2 4.83 5.28v.76h-7.6v.13a2.79 2.79 0 0 0 2.88 3 2.42 2.42 0 0 0 2.47-1.5zm-7.43-3.2h5.35a2.58 2.58 0 0 0-2.63-2.72 2.71 2.71 0 0 0-2.72 2.72zm-77.2-19.4c2.1 0 3.33 1.3 3.33 3.5s-1.22 3.55-3.33 3.55h-2.54v-7.06zm-1.45 6.06h1.33c1.48 0 2.33-.92 2.33-2.54a2.23 2.23 0 0 0-2.33-2.52h-1.33z"/><use xlink:href="#B"/><path d="M63.46 18.73h-1.1l-1.1-3.92h-.08l-1.1 3.92H59l-1.45-5.33h1.06l1 4.07h.07l1.1-4.07h1l1.1 4.07h.1l.94-4.07h1.06zm2.7-5.33h1v.85h.08a1.6 1.6 0 0 1 1.59-.95 1.73 1.73 0 0 1 1.84 2v3.45h-1.04v-3.2c0-.85-.37-1.28-1.15-1.28a1.22 1.22 0 0 0-1.27 1.35v3.12h-1zm6.2-2.08h1v7.4h-1zm2.5 4.74a2.52 2.52 0 1 1 5 0c0 1.73-1 2.77-2.5 2.77s-2.5-1.04-2.5-2.77zm3.94 0c0-1.15-.52-1.83-1.43-1.83S76 14.9 76 16.06s.5 1.84 1.42 1.84 1.4-.68 1.4-1.84zm2.2 1.16c0-1 .7-1.5 2-1.6l1.44-.08v-.46c0-.56-.37-.88-1.1-.88s-1 .2-1.1.6h-1c.1-.9 1-1.5 2.17-1.5s2.1.66 2.1 1.8v3.64h-1V18h-.08a1.8 1.8 0 0 1-1.6.84A1.62 1.62 0 0 1 81 17.22zm3.42-.45v-.45l-1.3.08c-.73.05-1.06.3-1.06.77s.4.76 1 .76a1.25 1.25 0 0 0 1.36-1.16zm2.43-.7c0-1.68.87-2.75 2.2-2.75a1.77 1.77 0 0 1 1.64.94h.07v-2.93h1v7.4h-1v-.84h-.1a1.83 1.83 0 0 1-1.67.93c-1.3 0-2.16-1.07-2.16-2.76zm1.1 0c0 1.13.53 1.8 1.42 1.8s1.43-.7 1.43-1.8-.55-1.8-1.43-1.8-1.42.68-1.42 1.8z"/><use xlink:href="#B" x="44.41"/><path d="M102.6 13.4h1v.85h.08a1.59 1.59 0 0 1 1.59-.95 1.73 1.73 0 0 1 1.84 2v3.45h-1v-3.2c0-.85-.37-1.28-1.15-1.28a1.22 1.22 0 0 0-1.27 1.35v3.12h-1zm10.47-1.32v1.35h1.15v.88h-1.15v2.74c0 .56.23.8.75.8h.4v.87a3.22 3.22 0 0 1-.57.06c-1.17 0-1.63-.4-1.63-1.44v-3h-.85v-.88h.83v-1.38zm2.6-.76h1v2.94h.08a1.64 1.64 0 0 1 1.63-1 1.76 1.76 0 0 1 1.83 2v3.44h-1v-3.15c0-.85-.4-1.28-1.14-1.28a1.24 1.24 0 0 0-1.34 1.35v3.1h-1zm10.7 5.98a2.17 2.17 0 0 1-2.31 1.54c-1.52 0-2.46-1-2.46-2.75s1-2.78 2.46-2.78 2.37 1 2.37 2.68v.37h-3.76v.06a1.42 1.42 0 0 0 1.42 1.53 1.28 1.28 0 0 0 1.27-.65zm-3.7-1.72h2.7a1.28 1.28 0 0 0-1.31-1.38 1.36 1.36 0 0 0-1.38 1.38z"/></g><defs ><path id="B" d="M51.76 16.06a2.53 2.53 0 1 1 5 0c0 1.73-1 2.77-2.5 2.77a2.45 2.45 0 0 1-2.49-2.77zm4 0c0-1.15-.52-1.83-1.43-1.83s-1.43.68-1.43 1.83.5 1.84 1.43 1.84 1.38-.68 1.38-1.84z"/></defs></svg>